<svg width="65" height="75" viewBox="0 0 65 75" fill="none" xmlns="http://www.w3.org/2000/svg">
<path d="M43.3784 67.4948C38.0168 67.4948 33.6584 54.0028 33.6584 37.3626C33.6584 20.7224 38.0168 7.23035 43.3784 7.23035C45.2463 7.23035 47.0104 8.89091 48.4978 11.7277C45.7997 4.49735 41.9602 0 37.6709 0C29.4729 0 22.7969 16.744 22.7969 37.3972C22.7969 58.0504 29.4383 74.7944 37.6709 74.7944C41.9256 74.7944 45.7652 70.2624 48.4978 63.0667C47.0104 65.9035 45.2809 67.564 43.3784 67.564V67.4948Z" fill="#F41C5A"/>
<path d="M5.01566 37.3625C5.01566 24.9775 11.1036 14.0109 20.4432 7.26489C8.47474 12.0044 0 23.6975 0 37.3625C0 51.0276 8.47474 62.7207 20.4432 67.4602C11.1036 60.7142 5.01566 49.7476 5.01566 37.3625Z" fill="#F41C5A"/>
<path d="M57.9065 55.9748C54.9317 55.9748 52.4757 47.6374 52.4757 37.3627C52.4757 27.088 54.8971 18.7506 57.9065 18.7506C59.3939 18.7506 60.7775 20.8609 61.7461 24.2512C60.0857 15.4987 56.8687 9.54834 53.1329 9.54834C47.7368 9.54834 43.3438 22.0025 43.3438 37.3973C43.3438 52.7921 47.7368 65.2463 53.1329 65.2463C56.8687 65.2463 60.1203 59.2959 61.7461 50.5434C60.7775 53.9337 59.3939 56.044 57.9065 56.044V55.9748Z" fill="#F41C5A"/>
</svg>
